HIERARCHY
ROOT Character1_Hips
{
	OFFSET 0.000000 86.858185 1.182688
	CHANNELS 6 Xposition Yposition Zposition Xrotation Yrotation Zrotation
	JOINT Character1_LeftUpLeg
	{
		OFFSET 7.276832 -6.057800 0.207883
		CHANNELS 6 Xposition Yposition Zposition Xrotation Yrotation Zrotation
		JOINT Character1_LeftLeg
		{
			OFFSET -1.823140 -35.110466 -1.568847
			CHANNELS 6 Xposition Yposition Zposition Xrotation Yrotation Zrotation
			JOINT Character1_LeftFoot
			{
				OFFSET -1.031196 -37.817070 -1.726818
				CHANNELS 6 Xposition Yposition Zposition Xrotation Yrotation Zrotation
				JOINT Character1_LeftToeBase
				{
					OFFSET 0.202457 -5.287532 8.122427
					CHANNELS 6 Xposition Yposition Zposition Xrotation Yrotation Zrotation
					End Site
					{
						OFFSET 0.009223 0.000047 9.693953
					}
				}
			}
		}
	}
	JOINT Character1_RightUpLeg
	{
		OFFSET -7.276832 -6.057770 0.207879
		CHANNELS 6 Xposition Yposition Zposition Xrotation Yrotation Zrotation
		JOINT Character1_RightLeg
		{
			OFFSET 1.823196 -35.109627 -1.587624
			CHANNELS 6 Xposition Yposition Zposition Xrotation Yrotation Zrotation
			JOINT Character1_RightFoot
			{
				OFFSET 1.031267 -37.817833 -1.710079
				CHANNELS 6 Xposition Yposition Zposition Xrotation Yrotation Zrotation
				JOINT Character1_RightToeBase
				{
					OFFSET -0.202449 -5.287759 8.122276
					CHANNELS 6 Xposition Yposition Zposition Xrotation Yrotation Zrotation
					End Site
					{
						OFFSET 0.001154 -0.000006 9.693956
					}
				}
			}
		}
	}
	JOINT Character1_Spine
	{
		OFFSET -0.000001 2.271347 0.818150
		CHANNELS 6 Xposition Yposition Zposition Xrotation Yrotation Zrotation
		JOINT Character1_Spine1
		{
			OFFSET -0.000001 9.085945 0.955446
			CHANNELS 6 Xposition Yposition Zposition Xrotation Yrotation Zrotation
			JOINT Character1_Spine2
			{
				OFFSET -0.000002 8.765564 -0.142866
				CHANNELS 6 Xposition Yposition Zposition Xrotation Yrotation Zrotation
				JOINT Character1_LeftShoulder
				{
					OFFSET 4.211487 11.612236 -3.873799
					CHANNELS 6 Xposition Yposition Zposition Xrotation Yrotation Zrotation
					JOINT Character1_LeftArm
					{
						OFFSET 5.543700 0.000031 -0.000005
						CHANNELS 6 Xposition Yposition Zposition Xrotation Yrotation Zrotation
						JOINT Character1_LeftForeArm
						{
							OFFSET 23.377409 -0.123474 0.033367
							CHANNELS 6 Xposition Yposition Zposition Xrotation Yrotation Zrotation
							JOINT Character1_LeftHand
							{
								OFFSET 16.247719 -0.118858 0.035829
								CHANNELS 6 Xposition Yposition Zposition Xrotation Yrotation Zrotation
								JOINT Character1_LeftHandThumb1
								{
									OFFSET 2.510399 -0.904045 2.091601
									CHANNELS 6 Xposition Yposition Zposition Xrotation Yrotation Zrotation
									JOINT Character1_LeftHandThumb2
									{
										OFFSET 2.570465 -1.130470 1.584520
										CHANNELS 6 Xposition Yposition Zposition Xrotation Yrotation Zrotation
										JOINT Character1_LeftHandThumb3
										{
											OFFSET 1.420841 -0.605858 0.842600
											CHANNELS 6 Xposition Yposition Zposition Xrotation Yrotation Zrotation
											JOINT Character1_LeftHandThumb4
											{
												OFFSET 2.153469 -0.757797 1.312965
												CHANNELS 6 Xposition Yposition Zposition Xrotation Yrotation Zrotation
												End Site
												{
													OFFSET 2.158772 -0.733734 1.317914
												}
											}
										}
									}
								}
								JOINT Character1_LeftHandIndex1
								{
									OFFSET 8.043888 0.989311 2.480770
									CHANNELS 6 Xposition Yposition Zposition Xrotation Yrotation Zrotation
									JOINT Character1_LeftHandIndex2
									{
										OFFSET 2.427021 0.011856 0.268371
										CHANNELS 6 Xposition Yposition Zposition Xrotation Yrotation Zrotation
										JOINT Character1_LeftHandIndex3
										{
											OFFSET 1.609932 0.007866 0.037315
											CHANNELS 6 Xposition Yposition Zposition Xrotation Yrotation Zrotation
											JOINT Character1_LeftHandIndex4
											{
												OFFSET 2.130016 0.049431 0.114431
												CHANNELS 6 Xposition Yposition Zposition Xrotation Yrotation Zrotation
												End Site
												{
													OFFSET 2.119099 0.211617 -0.131005
												}
											}
										}
									}
								}
								JOINT Character1_LeftHandMiddle1
								{
									OFFSET 8.038177 1.007423 0.439338
									CHANNELS 6 Xposition Yposition Zposition Xrotation Yrotation Zrotation
									JOINT Character1_LeftHandMiddle2
									{
										OFFSET 2.527046 -0.234444 -0.080977
										CHANNELS 6 Xposition Yposition Zposition Xrotation Yrotation Zrotation
										JOINT Character1_LeftHandMiddle3
										{
											OFFSET 1.931313 -0.179352 -0.117768
											CHANNELS 6 Xposition Yposition Zposition Xrotation Yrotation Zrotation
											JOINT Character1_LeftHandMiddle4
											{
												OFFSET 2.196999 0.041229 -0.161456
												CHANNELS 6 Xposition Yposition Zposition Xrotation Yrotation Zrotation
												End Site
												{
													OFFSET 2.197571 -0.071640 -0.141814
												}
											}
										}
									}
								}
								JOINT Character1_LeftHandRing1
								{
									OFFSET 7.662090 0.616508 -1.366725
									CHANNELS 6 Xposition Yposition Zposition Xrotation Yrotation Zrotation
									JOINT Character1_LeftHandRing2
									{
										OFFSET 2.249855 -0.592636 -0.461933
										CHANNELS 6 Xposition Yposition Zposition Xrotation Yrotation Zrotation
										JOINT Character1_LeftHandRing3
										{
											OFFSET 1.521790 -0.400856 -0.248318
											CHANNELS 6 Xposition Yposition Zposition Xrotation Yrotation Zrotation
											JOINT Character1_LeftHandRing4
											{
												OFFSET 2.446365 -0.396080 -0.528466
												CHANNELS 6 Xposition Yposition Zposition Xrotation Yrotation Zrotation
												End Site
												{
													OFFSET 2.437840 -0.527443 -0.446790
												}
											}
										}
									}
								}
								JOINT Character1_LeftHandPinky1
								{
									OFFSET 6.585136 -0.139000 -2.766160
									CHANNELS 6 Xposition Yposition Zposition Xrotation Yrotation Zrotation
									JOINT Character1_LeftHandPinky2
									{
										OFFSET 1.631428 -0.600632 -0.502815
										CHANNELS 6 Xposition Yposition Zposition Xrotation Yrotation Zrotation
										JOINT Character1_LeftHandPinky3
										{
											OFFSET 1.227242 -0.468956 -0.457904
											CHANNELS 6 Xposition Yposition Zposition Xrotation Yrotation Zrotation
											JOINT Character1_LeftHandPinky4
											{
												OFFSET 1.696033 -0.584229 -0.687828
												CHANNELS 6 Xposition Yposition Zposition Xrotation Yrotation Zrotation
												End Site
												{
													OFFSET 1.705387 -0.567787 -0.678411
												}
											}
										}
									}
								}
							}
						}
					}
				}
				JOINT Character1_RightShoulder
				{
					OFFSET -4.211487 11.612236 -3.873799
					CHANNELS 6 Xposition Yposition Zposition Xrotation Yrotation Zrotation
					JOINT Character1_RightArm
					{
						OFFSET -5.543744 0.000023 -0.000004
						CHANNELS 6 Xposition Yposition Zposition Xrotation Yrotation Zrotation
						JOINT Character1_RightForeArm
						{
							OFFSET -23.377581 -0.123566 0.033386
							CHANNELS 6 Xposition Yposition Zposition Xrotation Yrotation Zrotation
							JOINT Character1_RightHand
							{
								OFFSET -16.247574 -0.118851 0.036247
								CHANNELS 6 Xposition Yposition Zposition Xrotation Yrotation Zrotation
								JOINT Character1_RightHandThumb1
								{
									OFFSET -2.510384 -0.904091 2.091566
									CHANNELS 6 Xposition Yposition Zposition Xrotation Yrotation Zrotation
									JOINT Character1_RightHandThumb2
									{
										OFFSET -2.579426 -1.121681 1.537416
										CHANNELS 6 Xposition Yposition Zposition Xrotation Yrotation Zrotation
										JOINT Character1_RightHandThumb3
										{
											OFFSET -1.429546 -0.616760 0.819528
											CHANNELS 6 Xposition Yposition Zposition Xrotation Yrotation Zrotation
											JOINT Character1_RightHandThumb4
											{
												OFFSET -2.167622 -0.774658 1.279505
												CHANNELS 6 Xposition Yposition Zposition Xrotation Yrotation Zrotation
												End Site
												{
													OFFSET -2.137974 -0.606712 1.413074
												}
											}
										}
									}
								}
								JOINT Character1_RightHandIndex1
								{
									OFFSET -8.043800 0.988876 2.481294
									CHANNELS 6 Xposition Yposition Zposition Xrotation Yrotation Zrotation
									JOINT Character1_RightHandIndex2
									{
										OFFSET -2.426987 0.011948 0.268470
										CHANNELS 6 Xposition Yposition Zposition Xrotation Yrotation Zrotation
										JOINT Character1_RightHandIndex3
										{
											OFFSET -1.609989 0.007927 0.037374
											CHANNELS 6 Xposition Yposition Zposition Xrotation Yrotation Zrotation
											JOINT Character1_RightHandIndex4
											{
												OFFSET -2.129982 0.049034 0.114512
												CHANNELS 6 Xposition Yposition Zposition Xrotation Yrotation Zrotation
												End Site
												{
													OFFSET -2.123772 0.204735 0.006035
												}
											}
										}
									}
								}
								JOINT Character1_RightHandMiddle1
								{
									OFFSET -8.038174 1.006859 0.439860
									CHANNELS 6 Xposition Yposition Zposition Xrotation Yrotation Zrotation
									JOINT Character1_RightHandMiddle2
									{
										OFFSET -2.526997 -0.234062 -0.080875
										CHANNELS 6 Xposition Yposition Zposition Xrotation Yrotation Zrotation
										JOINT Character1_RightHandMiddle3
										{
											OFFSET -1.931465 -0.179070 -0.117694
											CHANNELS 6 Xposition Yposition Zposition Xrotation Yrotation Zrotation
											JOINT Character1_RightHandMiddle4
											{
												OFFSET -2.196987 0.042816 -0.161370
												CHANNELS 6 Xposition Yposition Zposition Xrotation Yrotation Zrotation
												End Site
												{
													OFFSET -2.184029 -0.187660 -0.222307
												}
											}
										}
									}
								}
								JOINT Character1_RightHandRing1
								{
									OFFSET -7.662136 0.615837 -1.366219
									CHANNELS 6 Xposition Yposition Zposition Xrotation Yrotation Zrotation
									JOINT Character1_RightHandRing2
									{
										OFFSET -2.249901 -0.592049 -0.461829
										CHANNELS 6 Xposition Yposition Zposition Xrotation Yrotation Zrotation
										JOINT Character1_RightHandRing3
										{
											OFFSET -1.521889 -0.400475 -0.248259
											CHANNELS 6 Xposition Yposition Zposition Xrotation Yrotation Zrotation
											JOINT Character1_RightHandRing4
											{
												OFFSET -2.446423 -0.395401 -0.528361
												CHANNELS 6 Xposition Yposition Zposition Xrotation Yrotation Zrotation
												End Site
												{
													OFFSET -2.430859 -0.503899 -0.507441
												}
											}
										}
									}
								}
								JOINT Character1_RightHandPinky1
								{
									OFFSET -6.585262 -0.139153 -2.765680
									CHANNELS 6 Xposition Yposition Zposition Xrotation Yrotation Zrotation
									JOINT Character1_RightHandPinky2
									{
										OFFSET -1.631413 -0.601036 -0.502742
										CHANNELS 6 Xposition Yposition Zposition Xrotation Yrotation Zrotation
										JOINT Character1_RightHandPinky3
										{
											OFFSET -1.227207 -0.469040 -0.457860
											CHANNELS 6 Xposition Yposition Zposition Xrotation Yrotation Zrotation
											JOINT Character1_RightHandPinky4
											{
												OFFSET -1.696110 -0.584045 -0.687750
												CHANNELS 6 Xposition Yposition Zposition Xrotation Yrotation Zrotation
												End Site
												{
													OFFSET -1.689350 -0.584435 -0.703875
												}
											}
										}
									}
								}
							}
						}
					}
				}
				JOINT Character1_Neck
				{
					OFFSET -0.000001 15.167763 -4.080687
					CHANNELS 6 Xposition Yposition Zposition Xrotation Yrotation Zrotation
					JOINT Character1_Head
					{
						OFFSET -0.000001 7.825302 -0.202157
						CHANNELS 6 Xposition Yposition Zposition Xrotation Yrotation Zrotation
						End Site
						{
							OFFSET -0.242856 15.320236 -2.107584
						}
					}
				}
				JOINT J_R_Mune_00
				{
					OFFSET -2.925001 2.684891 0.061887
					CHANNELS 6 Xposition Yposition Zposition Xrotation Yrotation Zrotation
					JOINT J_R_Mune_01
					{
						OFFSET -7.794388 2.801010 16.635391
						CHANNELS 6 Xposition Yposition Zposition Xrotation Yrotation Zrotation
						JOINT J_R_Mune_02
						{
							OFFSET 6.838630 -2.377007 -14.605499
							CHANNELS 6 Xposition Yposition Zposition Xrotation Yrotation Zrotation
							End Site
							{
								OFFSET -14.795670 -0.834061 -6.791919
							}
						}
					}
				}
				JOINT J_L_Mune_00
				{
					OFFSET 2.925019 2.684776 0.061883
					CHANNELS 6 Xposition Yposition Zposition Xrotation Yrotation Zrotation
					JOINT J_L_Mune_01
					{
						OFFSET 7.794374 2.801254 16.635433
						CHANNELS 6 Xposition Yposition Zposition Xrotation Yrotation Zrotation
						JOINT J_L_Mune_02
						{
							OFFSET -6.838619 -2.376648 -14.605538
							CHANNELS 3 Xrotation Yrotation Zrotation
							End Site
							{
								OFFSET 14.795649 -0.834076 -6.791907
							}
						}
					}
				}
			}
		}
	}
}
MOTION
Frames: 3
Frame Time: 0.033333
-0.476352 85.911819 0.501467 -0.276501 1.917869 0.443189 7.276833 -6.057803 0.207883 -13.956464 -3.161718 -1.292649 -1.823141 -35.110462 -1.568853 53.268785 -0.643784 0.068397 -1.031196 -37.817074 -1.726820 14.639793 -0.133817 3.208357 0.202457 -5.287531 8.122423 0.000091 0.000175 -0.000758 -7.276831 -6.057781 0.207879 -6.612595 0.213206 1.205194 1.823196 -35.109604 -1.587623 17.147755 4.323633 1.007845 1.031268 -37.817822 -1.710085 -10.106191 0.172493 -3.361757 -0.202448 -5.287759 8.122275 0.000092 -0.000220 -0.000491 -0.000001 2.271331 0.818149 -1.537378 -2.585135 -0.634822 -0.000001 9.085954 0.955446 -1.430145 -0.766494 0.251228 -0.000002 8.765549 -0.142872 12.896316 -0.461427 -0.111629 4.211488 11.612231 -3.873796 0.307581 7.129613 -2.476787 5.543691 0.000034 -0.000005 5.082120 -20.517337 -72.872005 23.377403 -0.123472 0.033365 -8.910955 -16.365082 1.382395 16.247700 -0.118857 0.035830 6.181074 -4.982941 -10.582166 2.510415 -0.904051 2.091606 -2.573712 -1.715573 7.431797 2.570470 -1.130469 1.584517 4.641601 14.920207 2.293130 1.420839 -0.605849 0.842596 5.373885 23.291655 2.709349 2.153468 -0.757809 1.312962 -0.000599 0.000989 -0.006287 8.043887 0.989311 2.480768 13.275591 17.927198 -2.245406 2.427016 0.011859 0.268368 0.526500 -0.078605 -23.106766 1.609920 0.007876 0.037317 2.445432 0.987277 -32.459327 2.130016 0.049426 0.114432 -0.003430 -0.004258 -0.000903 8.038177 1.007433 0.439338 9.079858 3.497363 -8.471386 2.527045 -0.234444 -0.080975 -1.113957 0.251845 -19.590402 1.931317 -0.179353 -0.117769 -1.040003 1.110356 -28.296794 2.197006 0.041233 -0.161454 -0.003244 -0.004032 0.000942 7.662085 0.616497 -1.366727 8.582537 -13.463415 -1.288067 2.249860 -0.592645 -0.461928 0.856488 0.716272 -17.207603 1.521794 -0.400856 -0.248308 -14.947507 6.934780 -62.333092 2.446366 -0.396065 -0.528470 -0.003701 -0.001443 0.000977 6.585145 -0.138994 -2.766163 -18.326371 -22.823757 -3.301914 1.631409 -0.600629 -0.502825 -6.099269 3.680807 -20.368965 1.227255 -0.468956 -0.457905 -12.723246 16.638530 -56.922978 1.696025 -0.584236 -0.687826 -0.000764 -0.000126 -0.000193 -4.211488 11.612224 -3.873797 0.000178 0.000229 0.000000 -5.543740 0.000021 -0.000002 4.169728 8.928350 78.897100 -23.377581 -0.123565 0.033387 -20.233100 16.376879 2.425997 -16.247562 -0.118859 0.036248 7.754935 -15.493362 6.517765 -2.510375 -0.904101 2.091560 -7.055068 -0.039785 -13.731907 -2.579431 -1.121685 1.537409 6.117694 -19.520672 -2.672888 -1.429555 -0.616766 0.819542 7.326661 -30.565151 -3.014496 -2.167626 -0.774652 1.279519 0.009747 0.003700 -0.006201 -8.043802 0.988871 2.481292 10.906606 -6.477683 15.169182 -2.426984 0.011933 0.268465 -0.069908 0.006685 22.352672 -1.609995 0.007918 0.037374 2.135116 -1.614479 28.337236 -2.129974 0.049052 0.114507 -0.000831 -0.008773 0.004677 -8.038169 1.006868 0.439861 -5.543401 2.839437 16.905289 -2.526994 -0.234064 -0.080874 -0.156378 -0.034146 20.891674 -1.931465 -0.179079 -0.117691 -0.279221 -0.643917 29.536272 -2.196980 0.042808 -0.161374 -0.000701 -0.002811 -0.003854 -7.662138 0.615843 -1.366221 -4.304434 18.975906 6.572831 -2.249910 -0.592041 -0.461829 1.394627 0.145332 14.312783 -1.521868 -0.400477 -0.248250 -4.706403 -1.931675 45.518310 -2.446427 -0.395391 -0.528364 0.004884 0.000997 0.007459 -6.585263 -0.139157 -2.765684 -23.276262 19.668146 -8.757862 -1.631416 -0.601037 -0.502739 -4.429329 -2.364698 14.358555 -1.227199 -0.469040 -0.457862 -9.658249 -11.694274 40.494706 -1.696108 -0.584046 -0.687752 0.004127 0.003800 -0.005300 -0.000001 15.167759 -4.080684 -1.736574 -0.512832 0.611151 -0.000000 7.825284 -0.202154 -1.569274 -0.287243 0.559204 -2.925002 2.684891 0.061889 -0.000002 -0.000002 0.000000 -7.794385 2.800988 16.635393 -0.000001 0.000001 0.000000 6.838631 -2.377007 -14.605497 -0.000000 0.000000 0.000000 2.925019 2.684784 0.061883 0.000001 0.000002 -0.000000 7.794374 2.801262 16.635429 -0.000000 0.000002 -0.000000 0.000002 0.000002 -0.000000 
-0.476367 86.060555 0.545448 -0.276502 1.917869 0.443217 7.276833 -6.057808 0.207880 -18.203185 -2.831215 -1.504937 -1.823140 -35.110470 -1.568851 57.127876 -0.746787 0.350307 -1.031196 -37.817074 -1.726822 16.017425 -0.141653 3.117955 0.202457 -5.287532 8.122428 0.000101 0.000134 -0.000735 -7.276831 -6.057795 0.207879 -4.868114 0.289449 1.245871 1.823196 -35.109627 -1.587621 16.743954 4.214905 1.030453 1.031268 -37.817829 -1.710083 -9.974583 0.191934 -3.507169 -0.202449 -5.287760 8.122277 0.000077 -0.000276 -0.000513 -0.000001 2.271332 0.818149 -1.023555 -2.589803 -0.611400 -0.000001 9.085960 0.955447 -1.430139 -0.766489 0.251200 -0.000002 8.765560 -0.142871 12.092210 -0.459443 -0.118045 4.211487 11.612251 -3.873805 0.307660 7.129599 -2.476756 5.543694 0.000019 -0.000008 5.689077 -20.055261 -72.996711 23.377394 -0.123480 0.033368 -8.571039 -15.075660 1.579202 16.247709 -0.118856 0.035828 5.245929 -4.539196 -10.891218 2.510384 -0.904048 2.091603 -2.573694 -1.715534 7.431804 2.570469 -1.130473 1.584523 4.641647 14.920147 2.293135 1.420845 -0.605854 0.842596 5.373868 23.291623 2.709244 2.153471 -0.757797 1.312964 -0.000625 0.001019 -0.006181 8.043869 0.989296 2.480766 13.275617 17.927194 -2.245404 2.427016 0.011845 0.268371 0.526539 -0.078597 -23.106711 1.609926 0.007867 0.037317 2.445365 0.987452 -32.459265 2.130017 0.049445 0.114433 -0.003283 -0.004333 -0.000917 8.038161 1.007428 0.439339 9.079924 3.497334 -8.471431 2.527052 -0.234452 -0.080977 -1.113973 0.251905 -19.590231 1.931320 -0.179339 -0.117769 -1.040016 1.110380 -28.296862 2.197002 0.041228 -0.161455 -0.003178 -0.003985 0.001116 7.662082 0.616494 -1.366728 8.582613 -13.463421 -1.288046 2.249866 -0.592635 -0.461932 0.856449 0.716304 -17.207627 1.521780 -0.400863 -0.248315 -14.947492 6.934793 -62.333044 2.446365 -0.396074 -0.528470 -0.003701 -0.001479 0.000964 6.585126 -0.139006 -2.766154 -18.326291 -22.823755 -3.301914 1.631423 -0.600643 -0.502824 -6.099219 3.680778 -20.368946 1.227250 -0.468955 -0.457906 -12.723330 16.638617 -56.922988 1.696028 -0.584237 -0.687827 -0.000690 -0.000088 -0.000257 -4.211487 11.612240 -3.873803 0.000186 0.000223 -0.000000 -5.543740 0.000021 -0.000005 2.388595 9.804231 78.258299 -23.377567 -0.123568 0.033382 -21.042933 17.291148 2.760224 -16.247578 -0.118834 0.036251 8.618949 -13.841058 6.558203 -2.510384 -0.904113 2.091562 -7.055048 -0.039845 -13.731896 -2.579433 -1.121682 1.537411 6.117679 -19.520677 -2.673006 -1.429541 -0.616760 0.819535 7.326501 -30.565131 -3.014592 -2.167617 -0.774659 1.279513 0.009808 0.003659 -0.006254 -8.043806 0.988880 2.481294 10.906629 -6.477700 15.169290 -2.427003 0.011944 0.268469 -0.069905 0.006688 22.352638 -1.609996 0.007929 0.037375 2.135077 -1.614504 28.337174 -2.129981 0.049045 0.114509 -0.000833 -0.008789 0.004706 -8.038188 1.006860 0.439861 -5.543370 2.839379 16.905311 -2.526999 -0.234067 -0.080873 -0.156324 -0.034076 20.891635 -1.931465 -0.179082 -0.117692 -0.279313 -0.643951 29.536272 -2.196986 0.042811 -0.161369 -0.000711 -0.002820 -0.003818 -7.662132 0.615837 -1.366224 -4.304400 18.975836 6.572823 -2.249893 -0.592040 -0.461834 1.394584 0.145374 14.312687 -1.521901 -0.400476 -0.248253 -4.706385 -1.931779 45.518307 -2.446436 -0.395385 -0.528365 0.004980 0.001039 0.007435 -6.585281 -0.139159 -2.765683 -23.276247 19.668126 -8.757800 -1.631433 -0.601034 -0.502744 -4.429319 -2.364704 14.358475 -1.227198 -0.469053 -0.457858 -9.658267 -11.694235 40.494692 -1.696108 -0.584062 -0.687752 0.004113 0.003780 -0.005296 -0.000001 15.167761 -4.080689 -1.736148 -0.512846 0.611177 -0.000000 7.825320 -0.202157 -1.569645 -0.287277 0.559169 -2.925002 2.684891 0.061883 0.000001 -0.000000 0.000000 -7.794385 2.800987 16.635387 0.000002 -0.000001 0.000000 6.838628 -2.377007 -14.605498 -0.000001 0.000002 -0.000000 2.925019 2.684799 0.061875 0.000001 0.000002 -0.000000 7.794372 2.801247 16.635427 -0.000002 -0.000000 0.000000 0.000000 0.000002 -0.000001 
-0.476390 86.229408 0.644558 -0.276503 1.917870 0.443203 7.276833 -6.057815 0.207884 -23.154976 -2.447306 -1.733799 -1.823140 -35.110455 -1.568850 62.106186 -0.836076 0.658550 -1.031196 -37.817062 -1.726822 17.052023 -0.144158 3.036716 0.202457 -5.287533 8.122426 0.000142 0.000252 -0.000751 -7.276832 -6.057781 0.207879 -2.243033 0.412898 1.275127 1.823197 -35.109619 -1.587622 14.919507 4.090101 1.076729 1.031268 -37.817833 -1.710083 -9.630777 0.205898 -3.628424 -0.202449 -5.287759 8.122277 0.000076 -0.000248 -0.000462 -0.000001 2.271328 0.818149 -0.404262 -2.595467 -0.583225 -0.000001 9.085954 0.955446 -1.430156 -0.766498 0.251212 -0.000002 8.765546 -0.142871 11.123158 -0.457092 -0.125694 4.211488 11.612244 -3.873795 0.307630 7.129630 -2.476740 5.543688 0.000037 -0.000011 6.428339 -19.505463 -73.171516 23.377409 -0.123482 0.033367 -8.172540 -13.482559 1.814895 16.247713 -0.118847 0.035830 4.236445 -4.052581 -11.217181 2.510390 -0.904049 2.091605 -2.573709 -1.715524 7.431782 2.570463 -1.130471 1.584513 4.641637 14.920174 2.293095 1.420843 -0.605868 0.842593 5.373897 23.291601 2.709279 2.153453 -0.757798 1.312952 -0.000591 0.001026 -0.006250 8.043878 0.989308 2.480770 13.275607 17.927186 -2.245426 2.427029 0.011858 0.268374 0.526552 -0.078569 -23.106760 1.609923 0.007866 0.037314 2.445389 0.987472 -32.459275 2.130021 0.049439 0.114429 -0.003262 -0.004385 -0.000931 8.038166 1.007432 0.439340 9.079882 3.497361 -8.471411 2.527040 -0.234440 -0.080974 -1.113954 0.251962 -19.590190 1.931310 -0.179339 -0.117769 -1.039989 1.110292 -28.296903 2.196998 0.041227 -0.161453 -0.003203 -0.003992 0.001122 7.662076 0.616506 -1.366733 8.582611 -13.463392 -1.288030 2.249881 -0.592640 -0.461933 0.856462 0.716304 -17.207582 1.521804 -0.400860 -0.248317 -14.947507 6.934802 -62.333099 2.446356 -0.396084 -0.528475 -0.003687 -0.001474 0.000960 6.585126 -0.138993 -2.766160 -18.326333 -22.823772 -3.301912 1.631431 -0.600636 -0.502821 -6.099236 3.680826 -20.368988 1.227232 -0.468932 -0.457914 -12.723338 16.638611 -56.922978 1.696028 -0.584232 -0.687828 -0.000698 -0.000075 -0.000238 -4.211486 11.612224 -3.873794 0.000177 0.000252 -0.000000 -5.543741 0.000035 -0.000004 0.273794 10.925894 77.567077 -23.377583 -0.123563 0.033387 -22.030823 18.376238 3.162682 -16.247570 -0.118857 0.036246 9.546863 -12.051733 6.567545 -2.510378 -0.904102 2.091560 -7.055034 -0.039818 -13.731971 -2.579437 -1.121680 1.537409 6.117697 -19.520706 -2.672938 -1.429552 -0.616774 0.819541 7.326562 -30.565103 -3.014567 -2.167619 -0.774655 1.279514 0.009795 0.003623 -0.006255 -8.043796 0.988884 2.481294 10.906653 -6.477664 15.169222 -2.426980 0.011933 0.268470 -0.069915 0.006675 22.352668 -1.609998 0.007932 0.037373 2.135091 -1.614462 28.337176 -2.129970 0.049044 0.114508 -0.000834 -0.008788 0.004741 -8.038165 1.006857 0.439861 -5.543360 2.839413 16.905309 -2.526998 -0.234062 -0.080875 -0.156357 -0.034092 20.891592 -1.931457 -0.179084 -0.117691 -0.279306 -0.643981 29.536269 -2.196997 0.042792 -0.161372 -0.000732 -0.002825 -0.003809 -7.662127 0.615831 -1.366218 -4.304387 18.975852 6.572847 -2.249892 -0.592041 -0.461829 1.394581 0.145349 14.312666 -1.521871 -0.400473 -0.248250 -4.706414 -1.931830 45.518310 -2.446431 -0.395401 -0.528361 0.005021 0.001056 0.007424 -6.585258 -0.139154 -2.765679 -23.276235 19.668126 -8.757829 -1.631416 -0.601037 -0.502747 -4.429317 -2.364616 14.358504 -1.227204 -0.469045 -0.457858 -9.658268 -11.694357 40.494689 -1.696110 -0.584042 -0.687750 0.004128 0.003768 -0.005331 -0.000001 15.167757 -4.080681 -1.736351 -0.512827 0.611165 -0.000000 7.825325 -0.202162 -1.569462 -0.287244 0.559247 -2.925002 2.684883 0.061890 -0.000000 -0.000002 0.000000 -7.794385 2.801003 16.635389 -0.000000 -0.000001 0.000000 6.838629 -2.377007 -14.605502 -0.000000 -0.000002 -0.000000 2.925019 2.684784 0.061885 0.000001 -0.000002 0.000000 7.794375 2.801254 16.635431 -0.000000 0.000002 0.000000 0.000001 0.000004 0.000000 
